<?xml version="1.0" encoding="UTF-8" standalone="no"?>
<!-- Created with Inkscape (http://www.inkscape.org/) -->

<svg
   width="130mm"
   height="65mm"
   viewBox="0 0 130 65"
   version="1.1"
   id="svg5"
   sodipodi:docname="vector_icon_italicized_bold.svg"
   inkscape:version="1.3.1 (9b9bdc1480, 2023-11-25, custom)"
   xmlns:inkscape="http://www.inkscape.org/namespaces/inkscape"
   xmlns:sodipodi="http://sodipodi.sourceforge.net/DTD/sodipodi-0.dtd"
   xmlns:xlink="http://www.w3.org/1999/xlink"
   xmlns="http://www.w3.org/2000/svg"
   xmlns:svg="http://www.w3.org/2000/svg"
   xmlns:rdf="http://www.w3.org/1999/02/22-rdf-syntax-ns#"
   xmlns:cc="http://creativecommons.org/ns#"
   xmlns:dc="http://purl.org/dc/elements/1.1/">
  <title
     id="title2457">PySoft</title>
  <sodipodi:namedview
     id="namedview7"
     pagecolor="#ffffff"
     bordercolor="#000000"
     borderopacity="0.25"
     inkscape:showpageshadow="2"
     inkscape:pageopacity="0.0"
     inkscape:pagecheckerboard="0"
     inkscape:deskcolor="#d1d1d1"
     inkscape:document-units="mm"
     showgrid="false"
     inkscape:zoom="1.3932941"
     inkscape:cx="293.19007"
     inkscape:cy="90.433168"
     inkscape:window-width="1850"
     inkscape:window-height="1016"
     inkscape:window-x="70"
     inkscape:window-y="27"
     inkscape:window-maximized="1"
     inkscape:current-layer="layer1" />
  <defs
     id="defs2">
    <linearGradient
       id="linearGradient2526"
       inkscape:swatch="solid">
      <stop
         style="stop-color:#000000;stop-opacity:1;"
         offset="0"
         id="stop2524" />
    </linearGradient>
    <linearGradient
       inkscape:collect="always"
       xlink:href="#linearGradient2526"
       id="linearGradient2528"
       x1="17.484491"
       y1="11.571532"
       x2="58.104416"
       y2="11.571532"
       gradientUnits="userSpaceOnUse" />
  </defs>
  <g
     inkscape:label="Layer 1"
     inkscape:groupmode="layer"
     id="layer1">
    <path
       id="path2020"
       style="stroke-width:1.85734"
       d="M 99.298495,21.131179 A 10.529788,10.529788 0 0 1 88.768703,31.660966 10.529788,10.529788 0 0 1 78.23892,21.131179 10.529788,10.529788 0 0 1 88.768703,10.601394 10.529788,10.529788 0 0 1 99.298495,21.131179 Z" />
    <path
       id="path217"
       style="stroke-width:1.79742"
       d="M 98.958819,21.131179 A 10.190118,10.190118 0 0 1 88.768703,31.321295 10.190118,10.190118 0 0 1 78.57859,21.131179 10.190118,10.190118 0 0 1 88.768703,10.941064 10.190118,10.190118 0 0 1 98.958819,21.131179 Z" />
    <path
       id="circle219"
       style="fill:#ffffff;stroke-width:6.7934;stroke-dasharray:none"
       d="m 88.770433,10.93993 a 10.190118,10.190118 0 0 0 -0.322963,0.01019 c -2.663983,0.166031 -4.774409,2.381029 -4.774409,5.086852 0,2.813924 2.283461,5.093867 5.097381,5.093867 2.81393,0 5.093875,2.279943 5.093875,5.093868 0,2.705823 -2.110426,4.920803 -4.7744,5.086855 A 10.190118,10.190118 0 0 0 98.958172,21.131179 10.190118,10.190118 0 0 0 88.770433,10.93993 Z" />
    <path
       id="circle1066"
       style="fill:#ffffff;stroke-width:0.449354"
       d="M 90.042469,26.226236 A 1.2737647,1.2737647 0 0 1 88.768703,27.5 a 1.2737647,1.2737647 0 0 1 -1.273765,-1.273764 1.2737647,1.2737647 0 0 1 1.273765,-1.273765 1.2737647,1.2737647 0 0 1 1.273766,1.273765 z" />
    <path
       id="circle1068"
       style="fill:#000000;stroke-width:0.449354"
       d="m 90.042469,16.036123 a 1.2737647,1.2737647 0 0 1 -1.273766,1.273765 1.2737647,1.2737647 0 0 1 -1.273765,-1.273765 1.2737647,1.2737647 0 0 1 1.273765,-1.273765 1.2737647,1.2737647 0 0 1 1.273766,1.273765 z" />
    <path
       style="font-style:italic;font-size:43.1383px;font-family:'Latin Modern Roman Slanted';-inkscape-font-specification:'Latin Modern Roman Slanted, Normal';stroke:#000000;stroke-width:0.75;fill:#000000;fill-opacity:1"
       d="m 8.174458,0.46773706 h 9.836712 q 4.29698,0 6.550787,2.00104424 2.253808,2.0010443 2.253808,5.8556875 0,5.1816512 -3.328052,8.0673682 -3.328053,2.885716 -9.352249,2.885716 H 8.7853031 L 6.3208591,31.915728 H 2.0449435 Z M 11.755274,3.9642986 9.4804027,15.780992 h 5.3501603 q 3.622944,0 5.560797,-1.853599 1.937853,-1.853599 1.937853,-5.3080335 0,-2.2116805 -1.327008,-3.4333707 Q 19.69626,3.9642986 17.316071,3.9642986 Z M 37.600342,34.106345 q -2.696144,4.528679 -4.402298,5.645051 -1.68509,1.137435 -4.318043,1.137435 h -3.054225 l 0.652972,-3.243798 h 2.232744 q 1.621899,0 2.759335,-0.884672 1.137436,-0.884672 2.548699,-3.454434 L 35.220152,31.052119 29.996373,8.3244688 H 34.10378 L 38.021614,26.397058 48.848317,8.3244688 h 4.065279 z M 78.442706,1.4998546 77.621225,5.6493885 Q 75.493799,4.5119529 73.387436,3.943235 71.302138,3.3534535 69.343221,3.3534535 q -3.812516,0 -6.066324,1.6640263 -2.253808,1.6640263 -2.253808,4.4233611 0,1.5165811 0.821482,2.3380621 0.842544,0.800418 4.296979,1.727217 l 2.548698,0.631909 q 4.318043,1.116372 6.003133,2.843589 1.68509,1.706154 1.68509,4.802506 0,4.76038 -3.749325,7.751414 -3.728261,2.991035 -9.836712,2.991035 -2.506572,0 -5.034207,-0.505527 -2.527634,-0.484464 -5.076333,-1.495518 l 0.863609,-4.381233 q 2.338062,1.45339 4.676124,2.190617 2.359126,0.737226 4.697188,0.737226 3.981025,0 6.382278,-1.769344 2.401254,-1.769344 2.401254,-4.612934 0,-1.895726 -0.968927,-2.864653 -0.947863,-0.98999 -4.107407,-1.790408 l -2.548698,-0.652972 q -4.36017,-1.137436 -5.961006,-2.611889 -1.579772,-1.495518 -1.579772,-4.170598 0,-4.697188 3.60188,-7.6882226 3.622943,-3.01209819 9.41544,-3.01209819 2.253808,0 4.465488,0.40020886 2.211681,0.40020885 4.423361,1.20062653 z"
       id="text2274"
       aria-label="PyS" />
    <path
       style="font-style:italic;font-size:43.1383px;font-family:'Latin Modern Roman Slanted';-inkscape-font-specification:'Latin Modern Roman Slanted, Normal';stroke:#000000;stroke-width:0.75;fill:#000000;fill-opacity:1"
       d="M 118.26175,-0.86455651 117.6509,2.358178 h -3.7072 q -2.10636,0 -3.07529,0.8425449 -0.94786,0.8214813 -1.41126,3.0331619 l -0.42127,2.0852987 h 6.38228 l -0.56872,3.0120985 h -6.38228 l -4.00209,20.57916 h -3.89677 l 4.02315,-20.57916 h -3.70719 l 0.54765,-3.0120985 h 3.7072 l 0.31595,-1.6429626 q 0.80042,-4.1705976 2.80146,-5.8556875 2.02211,-1.68508991 6.34015,-1.68508991 z m 12.80668,9.18374001 -0.58978,3.0120985 h -7.73035 l -2.50657,12.806683 q -0.12639,0.716163 -0.18958,1.200627 -0.0632,0.484463 -0.0632,0.75829 0,1.348072 0.80042,1.958917 0.82148,0.610845 2.61189,0.610845 h 3.91783 l -0.65297,3.243798 h -3.7072 q -3.45443,0 -5.16059,-1.348072 -1.68509,-1.348072 -1.68509,-4.086343 0,-0.484463 0.0632,-1.053181 0.0632,-0.589781 0.18957,-1.284881 l 2.50657,-12.806683 h -3.28593 l 0.61085,-3.0120985 h 3.22273 l 1.30595,-6.6982324 h 3.87571 l -1.28489,6.6982324 z"
       id="text2274-4"
       aria-label="ft" />
    <rect
       style="fill:#ffffff;stroke:#000000;stroke-width:0.544762;stroke-dasharray:none;stroke-opacity:1"
       id="rect2369"
       width="125.44473"
       height="0.78857082"
       x="2.1591609"
       y="44.119507" />
    <g
       id="text2373"
       style="font-size:6.35px;font-family:'Latin Modern Roman Slanted';-inkscape-font-specification:'Latin Modern Roman Slanted, Normal';stroke:#000000;stroke-width:0.3;fill:#000000;fill-opacity:1"
       aria-label="A Python Soft Computing Library &#10;Est. 2020">
      <path
         style="font-style:italic;font-size:8.11389px;text-align:center;text-anchor:middle;fill:#000000;fill-opacity:1"
         d="M 0.83428074,46.675046 H 1.7415467 L 2.838982,52.590103 H 2.0030295 L 1.7573942,51.072711 h -2.66237009 l -0.83595251,1.517392 h -0.8438762 z m 0.28921576,0.78841 -1.66001939,2.943662 H 1.6345765 Z m 6.2240822,-0.78841 h 1.8501887 q 0.8082196,0 1.2321386,0.376377 0.423919,0.376376 0.423919,1.101397 0,0.974617 -0.625974,1.517392 -0.6259739,0.542775 -1.7590659,0.542775 H 7.4624726 L 6.998935,52.590103 H 6.1946774 Z m 0.6735162,0.657669 -0.4278809,2.222603 h 1.0063125 q 0.68144,0 1.0459311,-0.348643 0.3644914,-0.348644 0.3644914,-0.998389 0,-0.415996 -0.2495975,-0.645783 Q 9.5147162,47.332715 9.067026,47.332715 Z m 4.8612031,5.669422 q -0.507118,0.8518 -0.828029,1.061778 -0.316949,0.213941 -0.812181,0.213941 h -0.57447 l 0.122817,-0.610127 h 0.419958 q 0.305063,0 0.519003,-0.166398 0.213941,-0.166398 0.479385,-0.649745 l 0.225826,-0.423919 -0.982541,-4.274847 h 0.772563 l 0.736906,3.399276 2.036396,-3.399276 h 0.764639 z m 6.220121,-4.849317 -0.110933,0.566546 h -1.454002 l -0.471462,2.408811 q -0.02377,0.134703 -0.03566,0.225826 -0.01189,0.09112 -0.01189,0.142627 0,0.253559 0.150551,0.368453 0.154512,0.114894 0.49127,0.114894 h 0.736906 l -0.122817,0.610126 h -0.697288 q -0.649745,0 -0.970655,-0.253559 -0.316949,-0.253559 -0.316949,-0.768601 0,-0.09112 0.01189,-0.198093 0.01189,-0.110932 0.03566,-0.241673 l 0.471462,-2.408811 h -0.618051 l 0.114894,-0.566546 h 0.606165 l 0.245635,-1.259872 h 0.728982 l -0.241673,1.259872 z m 4.270885,1.759066 -0.519004,2.678217 h -0.732944 l 0.519004,-2.650484 q 0.03566,-0.186208 0.05547,-0.328835 0.01981,-0.142627 0.01981,-0.225826 0,-0.332796 -0.209979,-0.519003 -0.209978,-0.186208 -0.586355,-0.186208 -0.586355,0 -1.018198,0.396186 -0.427881,0.396186 -0.55466,1.053855 l -0.479386,2.460315 h -0.728982 l 1.200444,-6.164654 h 0.728982 l -0.471461,2.424658 q 0.27733,-0.372415 0.709173,-0.586355 0.431842,-0.217903 0.907266,-0.217903 0.586355,0 0.907266,0.316949 0.324872,0.316949 0.324872,0.891419 0,0.142627 -0.01981,0.305063 -0.01585,0.162436 -0.0515,0.352606 z m 2.682179,2.793111 q -0.780487,0 -1.236101,-0.479385 -0.451652,-0.483347 -0.451652,-1.315338 0,-0.483347 0.154513,-0.982541 0.158474,-0.503156 0.408071,-0.843876 0.392225,-0.530889 0.875572,-0.784448 0.483346,-0.25356 1.093473,-0.25356 0.756715,0 1.220253,0.471462 0.467499,0.471461 0.467499,1.232138 0,0.526928 -0.154512,1.049893 -0.154513,0.522966 -0.40411,0.867648 -0.388262,0.530889 -0.871609,0.784448 -0.483347,0.253559 -1.101397,0.253559 z m -0.931037,-1.818494 q 0,0.602203 0.249597,0.903304 0.253559,0.29714 0.764639,0.29714 0.732944,0 1.212329,-0.63786 0.483347,-0.641821 0.483347,-1.624362 0,-0.57447 -0.257521,-0.867648 -0.257521,-0.293177 -0.756715,-0.293177 -0.412034,0 -0.732944,0.194131 -0.320911,0.190169 -0.57447,0.582393 -0.186208,0.293178 -0.289216,0.669555 -0.09905,0.376376 -0.09905,0.776524 z m 8.355562,-0.974617 -0.519003,2.678217 h -0.732944 l 0.519003,-2.650484 q 0.03566,-0.186208 0.05547,-0.328835 0.01981,-0.142627 0.01981,-0.225826 0,-0.332796 -0.209979,-0.519003 -0.209979,-0.186208 -0.586355,-0.186208 -0.586356,0 -1.010275,0.392224 -0.423919,0.388263 -0.55466,1.057817 l -0.487309,2.460315 H 29.24478 l 0.859724,-4.437283 h 0.728982 l -0.146589,0.697287 q 0.305063,-0.3843 0.732944,-0.594279 0.427881,-0.209979 0.899342,-0.209979 0.586356,0 0.907266,0.316949 0.324873,0.316949 0.324873,0.891419 0,0.142627 -0.01981,0.305063 -0.01585,0.162436 -0.0515,0.352606 z m 8.09408,-3.042709 -0.154513,0.780486 q -0.400148,-0.21394 -0.796334,-0.32091 -0.392224,-0.110932 -0.760677,-0.110932 -0.717097,0 -1.141016,0.312987 -0.423919,0.312987 -0.423919,0.83199 0,0.285254 0.154513,0.439767 0.158474,0.15055 0.808219,0.324872 l 0.479385,0.118856 q 0.812182,0.209979 1.129131,0.534851 0.316948,0.320911 0.316948,0.903304 0,0.895381 -0.705211,1.457965 -0.701249,0.562584 -1.850188,0.562584 -0.471462,0 -0.946885,-0.09508 -0.475423,-0.09112 -0.954808,-0.281292 l 0.162436,-0.824067 q 0.439766,0.273369 0.879533,0.412034 0.443728,0.138665 0.883495,0.138665 0.748791,0 1.200443,-0.332796 0.451652,-0.332796 0.451652,-0.867648 0,-0.356567 -0.182245,-0.538813 -0.178284,-0.186207 -0.772563,-0.336758 L 38.872099,49.85642 q -0.820105,-0.213941 -1.121206,-0.491271 -0.29714,-0.281292 -0.29714,-0.784448 0,-0.883495 0.677478,-1.446079 0.68144,-0.566546 1.770952,-0.566546 0.423919,0 0.839914,0.07528 0.415995,0.07527 0.831991,0.225826 z m 2.317691,5.83582 q -0.780487,0 -1.236101,-0.479385 -0.451652,-0.483347 -0.451652,-1.315338 0,-0.483347 0.154513,-0.982541 0.158474,-0.503156 0.408072,-0.843876 0.392224,-0.530889 0.875571,-0.784448 0.483347,-0.25356 1.093473,-0.25356 0.756715,0 1.220253,0.471462 0.467499,0.471461 0.467499,1.232138 0,0.526928 -0.154512,1.049893 -0.154513,0.522966 -0.40411,0.867648 -0.388262,0.530889 -0.871609,0.784448 -0.483347,0.253559 -1.101397,0.253559 z m -0.931037,-1.818494 q 0,0.602203 0.249597,0.903304 0.253559,0.29714 0.764639,0.29714 0.732944,0 1.212329,-0.63786 0.483347,-0.641821 0.483347,-1.624362 0,-0.57447 -0.257521,-0.867648 -0.257521,-0.293177 -0.756715,-0.293177 -0.412034,0 -0.732944,0.194131 -0.320911,0.190169 -0.57447,0.582393 -0.186207,0.293178 -0.289216,0.669555 -0.09905,0.376376 -0.09905,0.776524 z m 7.713741,-4.461054 -0.114894,0.606164 h -0.697287 q -0.396186,0 -0.578432,0.158475 -0.178283,0.154512 -0.265444,0.570508 l -0.07924,0.392224 h 1.200444 l -0.10697,0.566546 h -1.200444 l -0.752753,3.870737 h -0.732944 l 0.756715,-3.870737 h -0.697288 l 0.103009,-0.566546 h 0.697287 l 0.05943,-0.309025 q 0.150551,-0.784449 0.526928,-1.101398 0.380338,-0.316948 1.192519,-0.316948 z m 2.408809,1.727371 -0.110932,0.566546 h -1.454003 l -0.471461,2.408811 q -0.02377,0.134703 -0.03566,0.225826 -0.01189,0.09112 -0.01189,0.142627 0,0.253559 0.150551,0.368453 0.154512,0.114894 0.491271,0.114894 h 0.736906 l -0.122818,0.610126 h -0.697288 q -0.649745,0 -0.970655,-0.253559 -0.316949,-0.253559 -0.316949,-0.768601 0,-0.09112 0.01189,-0.198093 0.01188,-0.110932 0.03566,-0.241673 l 0.471462,-2.408811 h -0.618051 l 0.114894,-0.566546 h 0.606165 l 0.245635,-1.259872 h 0.728983 l -0.241674,1.259872 z m 7.967303,-1.02216 -0.162436,0.843876 q -0.380338,-0.3843 -0.808219,-0.570508 -0.423919,-0.186207 -0.919152,-0.186207 -0.677478,0 -1.19252,0.324872 -0.51108,0.324873 -0.883495,0.990465 -0.237711,0.427881 -0.364491,0.907266 -0.122817,0.475424 -0.122817,0.95877 0,0.80822 0.415995,1.232139 0.419957,0.423919 1.216291,0.423919 0.550699,0 1.057817,-0.174322 0.507118,-0.178284 0.986503,-0.530889 l -0.186208,0.946884 q -0.471461,0.202055 -0.954808,0.305064 -0.479385,0.103008 -0.962732,0.103008 -1.137054,0 -1.778875,-0.61805 -0.63786,-0.61805 -0.63786,-1.719447 0,-0.705212 0.241674,-1.386651 0.245635,-0.68144 0.701249,-1.244025 0.483347,-0.59824 1.101397,-0.883494 0.622012,-0.285254 1.446079,-0.285254 0.507118,0 0.95877,0.142627 0.455614,0.138665 0.847838,0.419957 z m 2.087899,5.574337 q -0.780486,0 -1.2361,-0.479385 -0.451652,-0.483347 -0.451652,-1.315338 0,-0.483347 0.154512,-0.982541 0.158475,-0.503156 0.408072,-0.843876 0.392224,-0.530889 0.875571,-0.784448 0.483347,-0.25356 1.093474,-0.25356 0.756715,0 1.220253,0.471462 0.467499,0.471461 0.467499,1.232138 0,0.526928 -0.154513,1.049893 -0.154512,0.522966 -0.404109,0.867648 -0.388263,0.530889 -0.871609,0.784448 -0.483347,0.253559 -1.101398,0.253559 z m -0.931037,-1.818494 q 0,0.602203 0.249597,0.903304 0.253559,0.29714 0.764639,0.29714 0.732945,0 1.21233,-0.63786 0.483347,-0.641821 0.483347,-1.624362 0,-0.57447 -0.257521,-0.867648 -0.257521,-0.293177 -0.756716,-0.293177 -0.412033,0 -0.732944,0.194131 -0.32091,0.190169 -0.574469,0.582393 -0.186208,0.293178 -0.289216,0.669555 -0.09905,0.376376 -0.09905,0.776524 z m 11.120945,-0.974617 -0.519003,2.678217 h -0.728983 l 0.51108,-2.654446 q 0.03169,-0.17036 0.04754,-0.293178 0.01585,-0.122818 0.01585,-0.209978 0,-0.356568 -0.198093,-0.554661 -0.198093,-0.198093 -0.55466,-0.198093 -0.53089,0 -0.946885,0.400148 -0.415995,0.396186 -0.538813,1.034046 l -0.487309,2.476162 h -0.728982 l 0.519004,-2.654446 q 0.03169,-0.146589 0.04754,-0.269407 0.01585,-0.126779 0.01585,-0.225826 0,-0.360529 -0.198093,-0.558622 -0.198093,-0.202055 -0.546736,-0.202055 -0.538813,0 -0.954809,0.400148 -0.415995,0.396186 -0.538813,1.034046 l -0.487308,2.476162 h -0.728983 l 0.867648,-4.437283 h 0.728982 l -0.138665,0.689363 q 0.297139,-0.388262 0.693325,-0.590317 0.400148,-0.206017 0.855762,-0.206017 0.483347,0 0.792372,0.25356 0.312987,0.253559 0.376377,0.705211 0.332796,-0.4675 0.768601,-0.713135 0.439766,-0.245636 0.927075,-0.245636 0.570508,0 0.879533,0.328835 0.312987,0.328834 0.312987,0.931037 0,0.130741 -0.01585,0.289216 -0.01585,0.154512 -0.04754,0.316949 z m 4.643297,-0.05547 q 0,-0.582394 -0.253559,-0.891419 -0.253559,-0.309025 -0.728982,-0.309025 -0.324873,0 -0.622012,0.166398 -0.293178,0.166398 -0.522966,0.483347 -0.225826,0.312987 -0.360529,0.756715 -0.134703,0.443729 -0.134703,0.879533 0,0.554661 0.253559,0.855762 0.253559,0.29714 0.721058,0.29714 0.344682,0 0.63786,-0.162437 0.297139,-0.162436 0.507118,-0.471461 0.225826,-0.324873 0.364491,-0.764639 0.138665,-0.439767 0.138665,-0.839914 z m -2.25826,-1.030084 q 0.293177,-0.3843 0.689363,-0.582393 0.400148,-0.198094 0.887457,-0.198094 0.68144,0 1.057817,0.447691 0.376377,0.443728 0.376377,1.247986 0,0.657668 -0.23375,1.255909 -0.23375,0.594279 -0.673516,1.065741 -0.293178,0.312987 -0.661631,0.479385 -0.368453,0.162436 -0.776525,0.162436 -0.471461,0 -0.792372,-0.194131 -0.32091,-0.198093 -0.479385,-0.586355 l -0.455614,2.353345 h -0.728982 l 1.19252,-6.125036 h 0.728982 z m 3.926206,2.004701 0.519004,-2.678217 h 0.732944 l -0.519004,2.650484 q -0.03962,0.194131 -0.05943,0.332796 -0.01585,0.138666 -0.01585,0.229788 0,0.336758 0.206017,0.522966 0.206016,0.182245 0.582393,0.182245 0.586355,0 1.014236,-0.396186 0.427881,-0.396186 0.558623,-1.06574 l 0.487308,-2.456353 h 0.728983 l -0.859724,4.437283 h -0.728982 l 0.146589,-0.697287 q -0.309026,0.388262 -0.736906,0.602203 -0.423919,0.209978 -0.903305,0.209978 -0.582393,0 -0.907266,-0.316949 -0.324872,-0.32091 -0.324872,-0.891418 0,-0.118856 0.01981,-0.29714 0.01981,-0.178283 0.05943,-0.368453 z m 8.03069,-2.678217 -0.110932,0.566546 h -1.454002 l -0.471462,2.408811 q -0.02377,0.134703 -0.03566,0.225826 -0.01189,0.09112 -0.01189,0.142627 0,0.253559 0.150551,0.368453 0.154512,0.114894 0.49127,0.114894 h 0.736906 l -0.122817,0.610126 h -0.697288 q -0.649745,0 -0.970655,-0.253559 -0.316949,-0.253559 -0.316949,-0.768601 0,-0.09112 0.01188,-0.198093 0.01189,-0.110932 0.03566,-0.241673 l 0.471461,-2.408811 h -0.61805 l 0.114894,-0.566546 h 0.606165 l 0.245635,-1.259872 h 0.728982 l -0.241673,1.259872 z m 1.236101,-1.727371 h 0.728982 l -0.178284,0.923113 h -0.728982 z m -0.332797,1.727371 h 0.728983 l -0.867648,4.437283 h -0.728982 z m 5.621877,1.759066 -0.519004,2.678217 h -0.732944 l 0.519004,-2.650484 q 0.03566,-0.186208 0.05547,-0.328835 0.01981,-0.142627 0.01981,-0.225826 0,-0.332796 -0.209978,-0.519003 -0.209979,-0.186208 -0.586356,-0.186208 -0.586355,0 -1.010274,0.392224 -0.423919,0.388263 -0.554661,1.057817 l -0.487308,2.460315 h -0.728983 l 0.859724,-4.437283 h 0.728982 l -0.146589,0.697287 q 0.305064,-0.3843 0.732945,-0.594279 0.427881,-0.209979 0.899342,-0.209979 0.586355,0 0.907266,0.316949 0.324872,0.316949 0.324872,0.891419 0,0.142627 -0.01981,0.305063 -0.01585,0.162436 -0.0515,0.352606 z m 5.459443,-1.759066 -0.756715,3.886585 q -0.217903,1.12913 -0.835953,1.68379 -0.614088,0.554661 -1.656057,0.554661 -0.384301,0 -0.713135,-0.05943 -0.328835,-0.05547 -0.614089,-0.174322 l 0.134704,-0.709173 q 0.269406,0.174322 0.570508,0.257521 0.301101,0.0832 0.641821,0.0832 0.693325,0 1.137054,-0.380339 0.44769,-0.376376 0.590317,-1.085549 l 0.06339,-0.332797 q -0.305064,0.348644 -0.709173,0.53089 -0.40411,0.182245 -0.87161,0.182245 -0.673516,0 -1.061778,-0.443728 -0.3843,-0.44769 -0.3843,-1.228177 0,-0.614088 0.233749,-1.200443 0.23375,-0.590318 0.657669,-1.045932 0.281292,-0.301101 0.653707,-0.463537 0.376377,-0.162437 0.784448,-0.162437 0.447691,0 0.780487,0.209979 0.332796,0.206017 0.495232,0.586355 l 0.12678,-0.689363 z m -1.097435,1.628324 q 0,-0.538813 -0.253559,-0.83199 -0.253559,-0.293178 -0.721059,-0.293178 -0.289216,0 -0.550698,0.114894 -0.261483,0.114894 -0.447691,0.320911 -0.301101,0.34072 -0.471461,0.804257 -0.166398,0.459576 -0.166398,0.950847 0,0.546736 0.253559,0.839914 0.257521,0.293178 0.736906,0.293178 0.693325,0 1.156863,-0.625974 0.463538,-0.629936 0.463538,-1.572859 z M 103.91,46.675046 h 0.80426 l -1.01424,5.249465 h 2.88027 l -0.13074,0.665592 h -3.68453 z m 4.6433,-0.249597 h 0.72898 l -0.17828,0.923113 h -0.72898 z m -0.33279,1.727371 h 0.72898 l -0.86765,4.437283 h -0.72898 z m 5.11872,1.727371 q 0,-0.57447 -0.26545,-0.899342 -0.26148,-0.324873 -0.72502,-0.324873 -0.33676,0 -0.6339,0.166398 -0.29317,0.162436 -0.51108,0.475423 -0.22979,0.328835 -0.36449,0.764639 -0.13074,0.431843 -0.13074,0.863686 0,0.546737 0.25752,0.859724 0.26148,0.309025 0.7171,0.309025 0.34468,0 0.63786,-0.158475 0.29318,-0.162436 0.51504,-0.475423 0.22583,-0.324873 0.36449,-0.756715 0.13867,-0.431843 0.13867,-0.824067 z m -2.26619,-1.053855 q 0.26941,-0.364491 0.67352,-0.570508 0.40807,-0.209979 0.8518,-0.209979 0.68144,0 1.08159,0.459576 0.40411,0.459576 0.40411,1.244024 0,0.641822 -0.23772,1.244024 -0.23375,0.602203 -0.66955,1.069703 -0.28525,0.309025 -0.65767,0.475423 -0.37241,0.166398 -0.78049,0.166398 -0.43184,0 -0.74879,-0.198093 -0.31695,-0.198093 -0.51504,-0.590317 l -0.13074,0.673516 h -0.72898 l 1.20044,-6.164654 h 0.72898 z m 7.01646,0 q -0.11093,-0.05943 -0.25356,-0.09112 -0.14263,-0.03169 -0.30506,-0.03169 -0.5824,0 -1.0182,0.443729 -0.43581,0.439766 -0.57843,1.180634 l -0.44769,2.262222 h -0.72899 l 0.86765,-4.437283 h 0.72898 l -0.13866,0.689363 q 0.28921,-0.3843 0.68936,-0.590317 0.40411,-0.206017 0.85973,-0.206017 0.11885,0 0.23375,0.01585 0.11489,0.01189 0.22978,0.04358 z m 4.07675,1.232138 -0.49523,2.531629 h -0.72898 l 0.1347,-0.673516 q -0.32091,0.396186 -0.73294,0.594279 -0.40808,0.194131 -0.91123,0.194131 -0.56655,0 -0.93104,-0.344682 -0.36053,-0.348643 -0.36053,-0.891418 0,-0.776525 0.61805,-1.228177 0.62201,-0.451652 1.71152,-0.451652 h 1.01424 l 0.0396,-0.194131 q 0.008,-0.03169 0.0119,-0.06735 0.004,-0.03962 0.004,-0.118856 0,-0.352605 -0.28922,-0.546736 -0.28525,-0.198093 -0.80426,-0.198093 -0.35656,0 -0.73294,0.09112 -0.37242,0.09112 -0.7686,0.273369 l 0.12678,-0.673516 q 0.41203,-0.154513 0.80426,-0.229788 0.39618,-0.07924 0.76463,-0.07924 0.78445,0 1.19252,0.34072 0.41204,0.34072 0.41204,0.990466 0,0.130741 -0.0198,0.309025 -0.0198,0.174321 -0.0594,0.372414 z m -0.78841,0.301102 h -0.72898 q -0.89538,0 -1.32722,0.241673 -0.42789,0.237712 -0.42789,0.740868 0,0.348644 0.21791,0.546737 0.22186,0.198093 0.61012,0.198093 0.59428,0 1.03801,-0.423919 0.44373,-0.427881 0.58636,-1.141016 z m 5.01968,-1.53324 q -0.11093,-0.05943 -0.25356,-0.09112 -0.14263,-0.03169 -0.30506,-0.03169 -0.5824,0 -1.0182,0.443729 -0.4358,0.439766 -0.57843,1.180634 l -0.44769,2.262222 h -0.72898 l 0.86764,-4.437283 h 0.72899 l -0.13867,0.689363 q 0.28922,-0.3843 0.68936,-0.590317 0.40411,-0.206017 0.85973,-0.206017 0.11885,0 0.23375,0.01585 0.11489,0.01189 0.22979,0.04358 z m 1.73132,4.175801 q -0.50711,0.8518 -0.82803,1.061778 -0.31694,0.213941 -0.81218,0.213941 h -0.57447 l 0.12282,-0.610127 h 0.41996 q 0.30506,0 0.519,-0.166398 0.21394,-0.166398 0.47939,-0.649745 l 0.22582,-0.423919 -0.98254,-4.274847 h 0.77256 l 0.73691,3.399276 2.0364,-3.399276 h 0.76464 z"
         id="path1" />
      <path
         style="font-style:italic;font-size:8.11389px;text-align:center;text-anchor:middle;fill:#000000;fill-opacity:1"
         d="m 47.871466,56.817408 h 3.739996 l -0.130741,0.673516 h -2.943662 l -0.34072,1.751142 h 2.824806 l -0.130742,0.673517 h -2.824806 l -0.412033,2.143366 h 3.011013 l -0.130741,0.673516 h -3.815271 z m 7.812788,1.608515 -0.138665,0.689364 q -0.289216,-0.158475 -0.610126,-0.237712 -0.320911,-0.07924 -0.661631,-0.07924 -0.57447,0 -0.907266,0.198093 -0.328834,0.194131 -0.328834,0.530889 0,0.392225 0.7686,0.602203 0.05943,0.01585 0.08716,0.02377 l 0.23375,0.07131 q 0.728982,0.202055 0.970656,0.423919 0.245635,0.221864 0.245635,0.606164 0,0.705212 -0.562584,1.14894 -0.558622,0.443728 -1.465888,0.443728 -0.352606,0 -0.740868,-0.06735 -0.388262,-0.06735 -0.855762,-0.209979 l 0.142627,-0.752753 q 0.400148,0.206016 0.78841,0.312987 0.388263,0.10697 0.74483,0.10697 0.534851,0 0.867647,-0.229788 0.336759,-0.229788 0.336759,-0.582394 0,-0.380338 -0.879533,-0.614088 l -0.07528,-0.01981 -0.249597,-0.06339 q -0.55466,-0.146589 -0.812181,-0.3843 -0.257521,-0.241674 -0.257521,-0.614089 0,-0.709173 0.530889,-1.125168 0.534851,-0.415995 1.450041,-0.415995 0.360529,0 0.701249,0.05943 0.344682,0.05943 0.677478,0.178283 z m 3.601332,-0.130741 -0.110932,0.566546 h -1.454003 l -0.471461,2.408811 q -0.02377,0.134703 -0.03566,0.225826 -0.01189,0.09112 -0.01189,0.142627 0,0.253559 0.150551,0.368453 0.154512,0.114894 0.491271,0.114894 h 0.736906 l -0.122818,0.610126 H 57.76027 q -0.649746,0 -0.970656,-0.253559 -0.316949,-0.253559 -0.316949,-0.768601 0,-0.09112 0.01189,-0.198093 0.01188,-0.110932 0.03566,-0.241673 l 0.471462,-2.408811 h -0.618051 l 0.114894,-0.566546 h 0.606165 l 0.245635,-1.259872 h 0.728983 l -0.241674,1.259872 z m 0.415995,3.430971 h 0.835952 l -0.194131,1.006312 H 59.50745 Z m 8.232746,-1.850189 -2.5554,2.190909 h 2.824806 l -0.138665,0.665592 h -3.839042 l 0.130741,-0.673516 2.670294,-2.289955 q 0.534851,-0.463538 0.756715,-0.812182 0.225826,-0.352605 0.225826,-0.721058 0,-0.384301 -0.269406,-0.625974 -0.269407,-0.241673 -0.705212,-0.241673 -0.376376,0 -0.835952,0.134703 -0.459576,0.134703 -0.982541,0.392224 l 0.146588,-0.792372 q 0.491271,-0.194131 0.938961,-0.293178 0.447691,-0.09905 0.828029,-0.09905 0.776525,0 1.247986,0.412033 0.475423,0.412034 0.475423,1.081588 0,0.451652 -0.225826,0.863686 -0.225826,0.408071 -0.693325,0.808219 z m 4.520482,-3.165526 q 0.804258,0 1.228177,0.534851 0.427881,0.534851 0.427881,1.537202 0,0.760677 -0.202055,1.51343 -0.198093,0.748792 -0.558622,1.343071 -0.368453,0.594279 -0.867648,0.903304 -0.495232,0.305063 -1.097435,0.305063 -0.776525,0 -1.200444,-0.538813 -0.423919,-0.538813 -0.423919,-1.53324 0,-0.752753 0.202055,-1.505507 0.206017,-0.756715 0.570508,-1.347032 0.364491,-0.594279 0.8518,-0.903304 0.491271,-0.309025 1.069702,-0.309025 z m -0.04754,0.633897 q -0.301101,0 -0.57447,0.162437 -0.269406,0.158474 -0.487309,0.471461 -0.364491,0.522966 -0.582393,1.307414 -0.21394,0.780486 -0.21394,1.604553 0,0.653707 0.229787,0.990465 0.23375,0.332797 0.685402,0.332797 0.316949,0 0.586356,-0.158475 0.269406,-0.162436 0.487308,-0.475423 0.36053,-0.519004 0.570508,-1.29949 0.213941,-0.784449 0.213941,-1.612477 0,-0.653707 -0.23375,-0.986503 -0.229788,-0.336759 -0.68144,-0.336759 z m 5.851668,2.531629 -2.5554,2.190909 h 2.824806 l -0.138665,0.665592 h -3.839043 l 0.130742,-0.673516 2.670294,-2.289955 q 0.534851,-0.463538 0.756715,-0.812182 0.225826,-0.352605 0.225826,-0.721058 0,-0.384301 -0.269407,-0.625974 -0.269406,-0.241673 -0.705211,-0.241673 -0.376376,0 -0.835952,0.134703 -0.459576,0.134703 -0.982541,0.392224 l 0.146588,-0.792372 q 0.491271,-0.194131 0.938961,-0.293178 0.44769,-0.09905 0.828029,-0.09905 0.776525,0 1.247986,0.412033 0.475423,0.412034 0.475423,1.081588 0,0.451652 -0.225826,0.863686 -0.225826,0.408071 -0.693325,0.808219 z m 4.520482,-3.165526 q 0.804258,0 1.228177,0.534851 0.427881,0.534851 0.427881,1.537202 0,0.760677 -0.202055,1.51343 -0.198093,0.748792 -0.558622,1.343071 -0.368453,0.594279 -0.867648,0.903304 -0.495232,0.305063 -1.097435,0.305063 -0.776525,0 -1.200444,-0.538813 -0.423919,-0.538813 -0.423919,-1.53324 0,-0.752753 0.202055,-1.505507 0.206017,-0.756715 0.570508,-1.347032 0.364491,-0.594279 0.8518,-0.903304 0.491271,-0.309025 1.069702,-0.309025 z m -0.04754,0.633897 q -0.301102,0 -0.57447,0.162437 -0.269406,0.158474 -0.487309,0.471461 -0.364491,0.522966 -0.582393,1.307414 -0.213941,0.780486 -0.213941,1.604553 0,0.653707 0.229788,0.990465 0.23375,0.332797 0.685402,0.332797 0.316949,0 0.586355,-0.158475 0.269407,-0.162436 0.487309,-0.475423 0.36053,-0.519004 0.570508,-1.29949 0.213941,-0.784449 0.213941,-1.612477 0,-0.653707 -0.23375,-0.986503 -0.229788,-0.336759 -0.68144,-0.336759 z"
         id="path2" />
    </g>
  </g>
  <metadata
     id="metadata2455">
    <rdf:RDF>
      <cc:Work
         rdf:about="">
        <dc:title>PySoft</dc:title>
        <dc:date>July 24, 2023</dc:date>
        <dc:creator>
          <cc:Agent>
            <dc:title>John Wesley Hostetter</dc:title>
          </cc:Agent>
        </dc:creator>
      </cc:Work>
    </rdf:RDF>
  </metadata>
</svg>
